<svg xmlns="http://www.w3.org/2000/svg" width="112" height="23" viewBox="0 0 112 23" fill="none"><rect x="12.801" y="11.1719" width="5.62468" height="5.33375" rx="2.66687" fill="white"></rect><rect x="1.52588e-05" y="5.15967" width="5.62468" height="5.33375" rx="2.66687" fill="#FC5A05"></rect><rect x="12.801" y="5.15918" width="5.62468" height="5.33375" rx="2.66687" fill="#FC5A05"></rect><rect x="6.40051" y="5.15918" width="5.62468" height="5.33375" rx="2.66687" fill="#FC5A05"></rect><rect x="1.52588e-05" y="17.0874" width="5.62468" height="5.33375" rx="2.66687" fill="white"></rect><rect x="12.801" y="17.0874" width="5.62468" height="5.33375" rx="2.66687" fill="white"></rect><rect x="6.40051" y="11.1719" width="5.62468" height="11.2494" rx="2.81234" fill="#FC5A05"></rect><rect x="1.52588e-05" y="11.1719" width="5.62468" height="5.33375" rx="2.66687" fill="white"></rect><path d="M26.3507 9.82418H29.9389V22H26.3507V9.82418ZM28.1448 4.29842C28.7348 4.29842 29.2372 4.50573 29.6518 4.92037C30.0664 5.335 30.2738 5.83734 30.2738 6.42739C30.2738 7.01745 30.0664 7.51979 29.6518 7.93442C29.2372 8.34905 28.7348 8.55637 28.1448 8.55637C27.5547 8.55637 27.0524 8.34905 26.6377 7.93442C26.2231 7.51979 26.0158 7.01745 26.0158 6.42739C26.0158 5.83734 26.2231 5.335 26.6377 4.92037C27.0524 4.50573 27.5547 4.29842 28.1448 4.29842ZM41.1733 22.0239C40.8225 22.1515 40.3521 22.2552 39.762 22.3349C39.1879 22.4306 38.3746 22.4784 37.3221 22.4784C36.7958 22.4784 36.3014 22.3748 35.8389 22.1674C35.3924 21.9761 35.0017 21.7129 34.6668 21.3781C34.3319 21.0272 34.0608 20.6285 33.8535 20.182C33.6621 19.7195 33.5664 19.2252 33.5664 18.6989L33.5425 12.9339H31.0547V9.82418H33.5425V5.94897H37.1307V9.82418H40.0969L39.4032 12.9339H37.1307V17.9573C37.1466 18.3082 37.2742 18.6112 37.5134 18.8663C37.7686 19.1056 38.0796 19.2252 38.4463 19.2252C39.0683 19.2252 39.5148 19.1614 39.7859 19.0338C40.073 18.8903 40.2803 18.7866 40.4079 18.7228L41.1733 22.0239ZM48.0918 14.3213C48.6818 14.4649 49.2878 14.6323 49.9098 14.8237C50.5317 15.0151 51.0899 15.2702 51.5842 15.5892C52.0945 15.9081 52.5092 16.3068 52.8281 16.7852C53.163 17.2477 53.3305 17.8298 53.3305 18.5314C53.3305 19.281 53.1471 19.9109 52.7803 20.4212C52.4135 20.9156 51.951 21.3222 51.3929 21.6412C50.8347 21.9442 50.2128 22.1595 49.527 22.2871C48.8572 22.4146 48.2034 22.4784 47.5655 22.4784C46.3216 22.4784 45.2133 22.1993 44.2405 21.6412C43.2836 21.0671 42.4703 20.2617 41.8005 19.2252L44.9103 17.5746C45.2292 18.1168 45.6438 18.5314 46.1542 18.8185C46.6804 19.0896 47.1987 19.2252 47.709 19.2252C48.4426 19.2252 48.9689 19.1693 49.2878 19.0577C49.6227 18.9461 49.7902 18.7946 49.7902 18.6032C49.7902 18.4437 49.6785 18.3082 49.4553 18.1966C49.2479 18.069 49.0008 17.9573 48.7137 17.8617C48.4426 17.766 48.1715 17.6942 47.9004 17.6464C47.6293 17.5826 47.4379 17.5427 47.3263 17.5268C46.7522 17.4151 46.1701 17.2716 45.58 17.0962C44.99 16.9048 44.4558 16.6576 43.9773 16.3546C43.4989 16.0357 43.1002 15.6529 42.7813 15.2064C42.4783 14.7439 42.3268 14.1778 42.3268 13.508C42.3268 12.8223 42.4703 12.2243 42.7574 11.7139C43.0604 11.1877 43.4511 10.7491 43.9295 10.3983C44.4079 10.0474 44.9501 9.78431 45.5561 9.60889C46.1781 9.43347 46.808 9.34576 47.4459 9.34576C48.61 9.34576 49.6785 9.61687 50.6513 10.1591C51.64 10.7013 52.4693 11.4428 53.1391 12.3837L50.2447 14.2017C49.8938 13.6436 49.4712 13.2369 48.9768 12.9818C48.4984 12.7266 48.028 12.599 47.5655 12.599C47.0392 12.599 46.6246 12.6708 46.3216 12.8143C46.0186 12.9578 45.8671 13.1412 45.8671 13.3645C45.8671 13.4602 45.9389 13.5559 46.0824 13.6516C46.2259 13.7313 46.4013 13.819 46.6087 13.9147C46.8319 13.9944 47.0711 14.0742 47.3263 14.1539C47.5974 14.2177 47.8525 14.2735 48.0918 14.3213Z" fill="#FC5A05"></path><path d="M60.9499 22.2392C59.7538 22.2392 58.6854 21.9442 57.7445 21.3541C56.8036 20.7641 56.062 19.9747 55.5198 18.9859C54.9776 17.9972 54.7065 16.9128 54.7065 15.7327C54.7065 14.5685 54.9696 13.5001 55.4959 12.5273C56.0381 11.5545 56.7797 10.781 57.7205 10.2069C58.6614 9.61687 59.7299 9.32184 60.926 9.32184C62.1539 9.32184 63.2304 9.61687 64.1553 10.2069C65.0803 10.797 65.7979 11.5784 66.3082 12.5512C66.8345 13.508 67.0976 14.5606 67.0976 15.7088C67.0976 15.9639 67.0896 16.1792 67.0737 16.3546H56.4049C56.4846 17.2477 56.7398 18.0451 57.1704 18.7467C57.6009 19.4325 58.1511 19.9827 58.8209 20.3973C59.4907 20.796 60.2243 20.9953 61.0217 20.9953C61.835 20.9953 62.6004 20.788 63.3181 20.3734C64.0357 19.9587 64.546 19.4165 64.849 18.7467L66.2604 19.1295C66.0052 19.7355 65.6065 20.2777 65.0643 20.7561C64.538 21.2186 63.9241 21.5854 63.2224 21.8565C62.5207 22.1116 61.7632 22.2392 60.9499 22.2392ZM56.357 15.1825H65.5667C65.5029 14.2894 65.2557 13.5001 64.8251 12.8143C64.3945 12.1126 63.8443 11.5704 63.1745 11.1877C62.5048 10.789 61.7632 10.5897 60.9499 10.5897C60.1366 10.5897 59.395 10.789 58.7252 11.1877C58.0554 11.5704 57.5053 12.1126 57.0747 12.8143C56.66 13.5001 56.4208 14.2894 56.357 15.1825ZM68.172 15.8044C68.172 14.6243 68.4112 13.5479 68.8896 12.5751C69.384 11.5864 70.0618 10.797 70.9229 10.2069C71.7841 9.61687 72.7648 9.32184 73.8652 9.32184C74.9018 9.32184 75.8267 9.60092 76.64 10.1591C77.4693 10.7013 78.1152 11.3631 78.5777 12.1445V4.53763H80.2043V20.0385C80.2043 20.4691 80.3957 20.6923 80.7784 20.7083V22C80.4594 22.0478 80.2123 22.0638 80.0368 22.0478C79.686 22.0319 79.383 21.9043 79.1278 21.6651C78.8886 21.4099 78.769 21.1229 78.769 20.8039V19.584C78.2747 20.3973 77.6049 21.0432 76.7597 21.5216C75.9144 22 75.0373 22.2392 74.1283 22.2392C73.2672 22.2392 72.4698 22.0638 71.7362 21.7129C71.0026 21.3621 70.3648 20.8837 69.8225 20.2777C69.2963 19.6717 68.8896 18.9859 68.6026 18.2205C68.3155 17.4391 68.172 16.6337 68.172 15.8044ZM78.5777 17.7181V13.8668C78.3703 13.2927 78.0354 12.7744 77.573 12.312C77.1105 11.8336 76.5842 11.4588 75.9942 11.1877C75.4201 10.9006 74.846 10.7571 74.2719 10.7571C73.3788 10.7571 72.5974 11.0043 71.9276 11.4987C71.2738 11.9771 70.7634 12.607 70.3966 13.3884C70.0299 14.1539 69.8465 14.9592 69.8465 15.8044C69.8465 16.6975 70.0458 17.5268 70.4445 18.2922C70.8591 19.0577 71.4173 19.6717 72.119 20.1342C72.8206 20.5807 73.61 20.8039 74.4872 20.8039C75.0294 20.8039 75.5955 20.6684 76.1855 20.3973C76.7915 20.1102 77.3178 19.7355 77.7643 19.273C78.2268 18.8105 78.4979 18.2922 78.5777 17.7181ZM83.1722 16.857V9.53713H84.7988V16.5699C84.7988 19.3926 85.7636 20.8039 87.6933 20.8039C88.6501 20.8039 89.5431 20.493 90.3724 19.871C91.2176 19.2491 91.8236 18.4198 92.1904 17.3832V9.53713H93.817V20.0385C93.817 20.4691 94.0084 20.6923 94.3911 20.7083V22C94.1998 22.0319 94.0483 22.0478 93.9366 22.0478C93.841 22.0478 93.7373 22.0478 93.6257 22.0478C93.2908 22.0159 93.0037 21.8884 92.7645 21.6651C92.5413 21.4418 92.4296 21.1707 92.4296 20.8518L92.3818 19.1773C91.8396 20.1501 91.098 20.9076 90.1571 21.4498C89.2322 21.9761 88.2275 22.2392 87.1431 22.2392C84.4958 22.2392 83.1722 20.4451 83.1722 16.857Z" fill="white"></path></svg>